<?xml version="1.0" standalone="no"?>
<!DOCTYPE svg PUBLIC "-//W3C//DTD SVG 1.1//EN" "http://www.w3.org/Graphics/SVG/1.1/DTD/svg11.dtd" >
<!--
2013-9-30: Created.
-->
<svg>
<metadata>
Created by iconfont
</metadata>
<defs>

<font id="iconfont" horiz-adv-x="1024" >
  <font-face
    font-family="iconfont"
    font-weight="500"
    font-stretch="normal"
    units-per-em="1024"
    ascent="896"
    descent="-128"
  />
    <missing-glyph />
    
    <glyph glyph-name="cangku" unicode="&#59321;" d="M956.23871 324.54591 956.23871 324.54591l0 5.01113L756.523109 419.453467 756.523109 670.117436l0 0 0 33.94409 0 0 0 4.071735L526.933107 811.476955l-229.590002-103.343693 0-276.729625-3.324722 1.497097L64.427358 329.556017l0-265.107937 229.590002-103.343693 216.315674 97.368608 216.315674-97.368608 229.590002 103.343693L956.23871 290.60182l0 0L956.23871 324.54591zM726.648708 243.413078l-150.130276 67.577095 150.131299 67.577095 150.130276-67.577095L726.648708 243.413078zM346.887498 647.816524l155.274436-69.892837L502.161934 364.727051l-155.274436 69.891813L346.887498 647.816524zM706.977693 434.618864l-155.270343-69.89079L551.70735 577.924711l155.270343 69.89079L706.977693 434.618864zM676.020634 690.036092l-149.087527-67.107397L377.845581 690.036092l149.087527 67.107397L676.020634 690.036092zM450.072579 308.322413l-156.055219-70.243831L137.962142 308.322413l156.055219 70.243831L450.072579 308.322413zM113.972774 262.966413l155.269319-69.89079 0-166.486802-155.269319 69.89079L113.972774 262.966413zM318.78751 26.585751 318.78751 193.073576l155.275459 69.89386 0-166.486802L318.78751 26.585751zM546.603099 268.299885l155.286716-69.897953 0-171.820274L546.603099 96.479611 546.603099 268.299885zM906.693294 96.479611l-155.258063-69.88465L751.435231 198.415234l155.258063 69.885674L906.693294 96.479611z"  horiz-adv-x="1024" />

    
    <glyph glyph-name="apigatewayapiwangguan" unicode="&#59208;" d="M523.776 465.386667l-152.938667-88.448 153.28-88.618667 152.746667 88.789333-153.088 88.277334z m-165.76-108.458667l0.512-177.066667 153.792-87.402666-0.853333 176.874666-153.450667 87.594667z m329.984 0l-153.450667-87.594667-0.853333-176.704 153.813333 87.402667 0.490667 176.896z m131.392-205.802667l-68.266667 40.896 39.68 8.725334-5.802666 26.176-67.242667-14.890667h-0.170667l-13.674666-22.933333 101.610666-60.885334 13.866667 22.912z m-142.848-7.68l68.074667-40.896-39.68-8.896 5.824-26.005333 67.221333 14.72h0.170667l13.696 22.912-101.632 61.077333-13.674667-22.933333zM481.493333 471.168h26.88v118.549333h-26.88v-79.530666l-27.882666 29.589333-19.328-18.474667 47.210666-50.133333z m53.546667 118.549333v-118.549333h26.688v79.573333l27.882667-29.610666 19.498666 18.474666-47.36 49.941334v0.170666H535.04z m-190.570667-401.834666l-13.504 23.104-68.608-40.213334 11.306667 39.018667-25.664 7.36-19.157333-66.218667h-0.170667l13.504-23.082666 102.293333 60.032z m-88.768-82.965334l13.504-23.082666 68.608 40.192-11.306666-38.997334 25.664-7.36 19.328 66.026667v0.170667l-13.504 23.104-102.293334-60.053334z m621.824 45.333334a82.496 82.496 0 0 1-82.453333-82.453334 82.496 82.496 0 0 1 82.453333-82.453333A82.496 82.496 0 0 1 960 67.84a82.496 82.496 0 0 1-82.453333 82.453333z m0-123.157334a40.533333 40.533333 0 1 0 0 81.066667 40.533333 40.533333 0 1 0 0-81.066667zM521.898667 603.093333a82.496 82.496 0 0 1 82.453333 82.453334A82.496 82.496 0 0 1 521.898667 768a82.389333 82.389333 0 0 1-82.453334-82.453333 82.389333 82.389333 0 0 1 82.453334-82.453334z m0 122.986667a40.533333 40.533333 0 1 0 0-81.066667 40.533333 40.533333 0 1 0 0 81.066667zM167.786667 146.858667A82.496 82.496 0 0 1 85.333333 64.405333a82.496 82.496 0 0 1 82.453334-82.453333 82.496 82.496 0 0 1 82.453333 82.453333 82.282667 82.282667 0 0 1-82.453333 82.453334z m0-123.008a40.533333 40.533333 0 1 0 0 81.088 40.533333 40.533333 0 1 0 0-81.066667z"  horiz-adv-x="1024" />

    
    <glyph glyph-name="APIguanli" unicode="&#58975;" d="M303.339977 231.057325l106.011591 276.040855h39.350086l112.971638-276.040855h-41.612716l-32.193289 83.618933h-115.431018l-30.311864-83.618933h-38.784428z m79.647033 113.352842h93.579424l-28.811641 76.44984q-13.182279 34.775639-19.576668 57.242078a351.974224 351.974224 0 0 0-14.879251-52.716819zM590.853841 231.057325V507.09818h104.130165q27.483576 0 41.99392-2.631537 20.339076-3.393945 34.074715-12.89945t22.134424-26.647387a84.578091 84.578091 0 0 0 8.37419-37.653114q0-35.20603-22.404955-59.590786t-80.962803-24.384757H627.387936v-112.221527h-36.534095z m36.534095 144.796021h71.322031q35.402781 0 50.269735 13.182278t14.916142 37.087457q0 17.314038-8.755394 29.660127a40.936387 40.936387 0 0 1-23.068988 16.281098q-9.222676 2.45938-34.087012 2.459381H627.387936v-98.670341zM854.278074 231.057325V507.09818h36.534095v-276.040855h-36.534095zM914.938691-19.270707H623.108614a32.857322 32.857322 0 0 0 0 65.702347h291.830077c146.443805 0 265.613082 119.144683 265.613081 265.613081 0 133.728808-99.912328 247.020166-232.411446 263.522609l-23.364114 2.914365-4.734307 23.081285c-27.213044 132.560603-145.361678 228.722376-280.922724 228.722376-158.138159 0-286.788347-128.650188-286.788347-286.788347 0-3.209491 0.073781-6.62803 0.221344-10.772086l1.340362-37.739192-37.616223 3.910415a230.751365 230.751365 0 0 1-23.745317 1.22969c-125.071789 0-226.828653-101.756863-226.828653-226.828653s101.756863-226.828653 226.828653-226.828652h79.032189a32.857322 32.857322 0 0 0 0-65.702347h-79.032189C131.232537-19.270707 0.049188 111.96183 0.049188 273.260293c0 159.540006 128.379656 289.653525 287.255629 292.481812A352.515287 352.515287 0 0 0 863.205624 815.565965a353.941728 353.941728 0 0 0 115.775332-178.464938c153.858837-30.12741 267.223976-166.008176 267.223976-325.080899a331.290835 331.290835 0 0 0-331.266241-331.290835zM698.033638-127.999914a32.734353 32.734353 0 0 0-22.195908 8.607831L532.505041 12.086393l135.684016 141.315997a32.857322 32.857322 0 0 0 47.39226-45.498537l-89.115648-92.829313 93.776174-86.016829a32.857322 32.857322 0 0 0-22.208205-57.057625z"  horiz-adv-x="1246" />

    
    <glyph glyph-name="api" unicode="&#59528;" d="M740.8 395.2H262.4l158.4 158.4H512c8-28.8 35.2-49.6 65.6-49.6 38.4 0 70.4 32 70.4 70.4s-32 70.4-70.4 70.4c-32 0-57.6-20.8-65.6-49.6h-107.2L206.4 395.2H156.8v-40h148.8l182.4-182.4H576v-49.6h139.2v139.2H576v-49.6h-70.4l-142.4 142.4h379.2v-75.2l168 94.4-168 94.4v-73.6z m-161.6 208c16 0 30.4-12.8 30.4-30.4s-14.4-28.8-30.4-28.8-30.4 12.8-30.4 30.4 14.4 28.8 30.4 28.8z m36.8-380.8h59.2v-59.2h-59.2v59.2z m164.8 179.2l46.4-27.2-46.4-27.2v54.4z"  horiz-adv-x="1024" />

    
    <glyph glyph-name="APIwangguan" unicode="&#59883;" d="M249.904-20.011l-32.771-32.751c70.767-20.275 158.719-10.725 250.295 25.202l-39.043 27.334c-65.027-22.386-126.561-29.573-178.481-19.785z m523.658 808.895l32.748 32.771c-71.279 20.406-159.996 10.556-252.32-26.031l42.603-26.017c64.452 22.005 125.436 28.978 176.969 19.277z m-62.153-204.772c51.301-51.321 94.006-106.159 127.164-161.191l24.155 36.8c-33.071 52.517-74.219 104.329-122.812 152.898C569.282 783.278 358.771 862.231 217.133 821.655l32.771-32.771c126.308 23.797 309.438-52.729 461.505-204.772z m184.322-281.126c22.922-65.731 30.322-127.949 20.449-180.378l32.771-32.751c20.51 71.642 10.446 160.895-26.587 253.705l-26.633-40.576z m-84.496-218.051c-31.512-31.515-31.512-82.58 0-114.094 31.515-31.512 82.58-31.512 114.094 0 31.512 31.515 31.512 82.58 0 114.094-31.515 31.511-82.58 31.511-114.094 0z m85.564-85.564c-15.737-15.757-41.28-15.757-57.034 0-15.757 15.734-15.757 41.277 0 57.034 15.754 15.754 41.297 15.754 57.034 0 15.757-15.758 15.757-41.3 0-57.034zM739.915 156.254c170.657 170.633 249.589 381.145 209.036 522.783l-32.771-32.774c23.794-126.305-52.729-309.435-204.772-461.502-53.005-53.005-109.783-96.821-166.628-130.424l35.671-24.967c54.777 33.751 108.868 76.287 159.464 126.884z m71.32 527.687c31.515-31.515 82.58-31.515 114.094 0 31.512 31.512 31.512 82.597 0 114.088-31.515 31.515-82.58 31.515-114.094 0-31.512-31.491-31.512-82.576 0-114.088z m28.53 85.581c15.754 15.737 41.297 15.737 57.034 0 15.757-15.754 15.757-41.297 0-57.057-15.737-15.754-41.28-15.754-57.034 0-15.758 15.76-15.758 41.303 0 57.057zM212.228 84.935c-31.515 31.512-82.597 31.512-114.088 0-31.515-31.515-31.515-82.58 0-114.094 31.491-31.512 82.574-31.512 114.088 0 31.515 31.514 31.515 82.579 0 114.094z m-28.527-85.564c-15.757-15.757-41.3-15.757-57.034 0-15.757 15.734-15.757 41.277 0 57.034 15.734 15.754 41.277 15.754 57.034 0 15.758-15.758 15.758-41.3 0-57.034z m28.527 684.57c31.515 31.512 31.515 82.597 0 114.088-31.515 31.515-82.597 31.515-114.088 0-31.515-31.491-31.515-82.577 0-114.088 31.491-31.515 82.574-31.515 114.088 0z m-85.561 85.581c15.734 15.737 41.277 15.737 57.034 0 15.757-15.754 15.757-41.297 0-57.057-15.757-15.754-41.3-15.754-57.034 0-15.757 15.76-15.757 41.303 0 57.057z m185.39-584.761c-52.028 52.045-95.201 107.715-128.571 163.492l-22.643-39.252c33.05-52.47 74.155-104.221 122.707-152.747 170.637-170.657 381.142-249.589 522.76-209.016l-32.748 32.751c-126.332-23.794-309.441 52.726-461.505 204.772z m-186.201 286.58c-21.45 63.71-28.187 123.943-18.57 174.921l-32.774 32.774c-20.382-71.171-10.594-159.719 25.845-251.872l25.499 44.177z m-18.57-348.734c-23.797 126.332 52.729 309.441 204.772 461.505 50.789 50.768 105.03 93.133 159.484 126.137l-38.1 23.282c-51.493-32.748-102.258-73.257-149.89-120.892C112.891 441.982 33.939 231.477 74.511 89.857l32.775 32.75zM362.32 498.664l-78.05-204.039h35.744l18.57 51.196h85.451l18.57-51.196h35.744l-78.05 204.039H362.32z m-13.73-125.383l32.3 89.453h1.117l32.021-89.453H348.59z m308.478 62.831c0 41.701-24.9 62.552-74.048 62.552h-84.566v-204.039h33.417v78.376h50.591c49.706 0.001 74.606 21.131 74.606 63.111z m-44.028-26.529c-6.842-5.213-17.732-8.005-32.579-8.005h-48.59v68.509h48.59c14.568 0 25.412-2.513 32.3-8.005 6.842-5.12 10.565-13.683 10.565-25.97s-3.445-21.13-10.286-26.529z m106.161 89.081h-33.464v-204.039h33.464V498.664z"  horiz-adv-x="1024" />

    
    <glyph glyph-name="openapiexplorer" unicode="&#59586;" d="M375.466667 307.2h-2.133334v-162.133333l138.666667-78.933334 138.666667 78.933334v162.133333h-2.133334L512 228.266667zM407.466667 326.4l104.533333-59.733333 104.533333 59.733333-104.533333 59.733333zM802.133333 573.866667l-138.666666 81.066666-134.4-78.933333 138.666666-78.933333v-162.133334l134.4 78.933334zM633.6 352v125.866667l-108.8 61.866666v-125.866666zM499.2 539.733333l-108.8-61.866666v-125.866667l108.8 61.866667zM494.933333 576l-134.4 78.933333-140.8-81.066666v-160l136.533334-78.933334v162.133334zM343.466667 789.333333H106.666667v-236.8h51.2V738.133333h185.6zM157.866667 29.866667v185.6H106.666667V-21.333333h236.8v51.2zM917.333333 789.333333H680.533333v-51.2h185.6v-185.6H917.333333V789.333333zM866.133333 215.466667v-185.6h-185.6V-21.333333H917.333333V215.466667z"  horiz-adv-x="1024" />

    
    <glyph glyph-name="mokuaiguanli-" unicode="&#59029;" d="M896 810.666667h-298.666667a42.666667 42.666667 0 0 1-42.666666-42.666667v-298.666667a42.666667 42.666667 0 0 1 42.666666-42.666666h298.666667a42.666667 42.666667 0 0 1 42.666667 42.666666V768a42.666667 42.666667 0 0 1-42.666667 42.666667z m-42.666667-298.666667h-213.333333V725.333333h213.333333zM810.666667 384h-298.666667V682.666667a42.666667 42.666667 0 0 1-42.666667 42.666666H128a42.666667 42.666667 0 0 1-42.666667-42.666666v-682.666667a42.666667 42.666667 0 0 1 42.666667-42.666667h682.666667a42.666667 42.666667 0 0 1 42.666666 42.666667v341.333333a42.666667 42.666667 0 0 1-42.666666 42.666667zM170.666667 640h256v-256H170.666667z m0-341.333333h256v-256H170.666667z m597.333333-256h-256v256h256z"  horiz-adv-x="1024" />

    
    <glyph glyph-name="jiekoupeizhi" unicode="&#58915;" d="M192.05-32.22c-17.67 0-32 14.33-32 32V765.77c0 17.67 14.33 32 32 32s32-14.33 32-32v-765.99c0-17.67-14.33-32-32-32zM834.86-32.22c-17.67 0-32 14.33-32 32V765.77c0 17.67 14.33 32 32 32s32-14.33 32-32v-765.99c0-17.67-14.33-32-32-32zM512.49-32.22c-17.67 0-32 14.33-32 32V765.77c0 17.67 14.33 32 32 32s32-14.33 32-32v-765.99c0-17.67-14.33-32-32-32zM834.86 428.38m-108.36 0a108.36 108.36 0 1 1 216.72 0 108.36 108.36 0 1 1-216.72 0ZM512.49 566.9m-108.36 0a108.36 108.36 0 1 1 216.72 0 108.36 108.36 0 1 1-216.72 0ZM192.05 266.12m-108.36 0a108.36 108.36 0 1 1 216.72 0 108.36 108.36 0 1 1-216.72 0Z"  horiz-adv-x="1024" />

    
    <glyph glyph-name="close" unicode="&#58884;" d="M557.255 384l316.784-316.784-45.255-45.255L512 338.745 195.216 21.961l-45.255 45.255L466.745 384 149.961 700.784l45.255 45.255L512 429.255l316.784 316.784 45.255-45.255z"  horiz-adv-x="1024" />

    
    <glyph glyph-name="add" unicode="&#58885;" d="M480 416V640h64v-224h224v-64H544v-224h-64V352H256v64h224z m32-480C264.576-64 64 136.576 64 384S264.576 832 512 832s448-200.576 448-448-200.576-448-448-448z m0 64c212.077 0 384 171.923 384 384S724.077 768 512 768 128 596.077 128 384s171.923-384 384-384z"  horiz-adv-x="1024" />

    
    <glyph glyph-name="download" unicode="&#58886;" d="M176 336v-288h672V336h64v-352H112V336h64z m368-77.492L687.362 401.87l45.255-45.255L512 135.998 291.383 356.615l45.255 45.255L480 258.508V784h64v-525.492z"  horiz-adv-x="1024" />

    
    <glyph glyph-name="delete" unicode="&#58887;" d="M332 696V824h360v-128h140v-0.5h64v-64h-64V-56H192V631.5h-64v64h64v0.5h140z m64 0h232v64H396v-64z m372-64.5H256V8h512V631.5zM576 504h64v-384h-64V504z m-192 0h64v-384h-64V504z"  horiz-adv-x="1024" />

    
    <glyph glyph-name="file-open" unicode="&#58888;" d="M864 504h96l-96-520H64V784h208l64-104h528v-176z m-64 0V616H300.237l-64 104H128v-389.333L160 504h640z m-586.734-64l-72.37-392h669.838l72.37 392H213.265z"  horiz-adv-x="1024" />

    
    <glyph glyph-name="file-colse" unicode="&#58889;" d="M896 552v64H316.67l-67.622 104H128v-168h768zM64 784h219.774l67.622-104H960v-696H64V784z m64-296v-440h768V488H128z"  horiz-adv-x="1024" />

    
    <glyph glyph-name="editor" unicode="&#58890;" d="M102 335.767L485.252 719.02c99.974 99.975 262.064 99.975 362.039 0 99.974-99.974 99.974-262.064 0-362.038L464.039-26.271H102V335.767z m90.51 0l271.529-271.529 337.997 337.997-271.53 271.53L192.51 335.767z m-26.51-64V37.73h234.039L166 271.767z m673.565 183.449c34.093 71.368 21.583 159.436-37.53 218.549-59.112 59.112-147.18 71.622-218.548 37.53l256.078-256.08z"  horiz-adv-x="1024" />

    
    <glyph glyph-name="home" unicode="&#58891;" d="M640 20h160V444h59.171L512 729.176 164.829 444H224v-424h160V316h256v-296zM448 252v-232h128V252H448zM64 444L512 812l448-368v-64h-96v-424H160V380H64v64z"  horiz-adv-x="1024" />

    
    <glyph glyph-name="keyboard" unicode="&#58892;" d="M32 736h960v-704H32V736z m64-64v-576h832V672H96z m64-160h96v-64h-96v64z m0 96h64v-64h-64v64z m128-96h64v-64h-64v64z m-32 96h64v-64h-64v64z m128-96h64v-64h-64v64z m-32 96h64v-64h-64v64z m128-96h64v-64h-64v64z m-32 96h64v-64h-64v64z m128-96h64v-64h-64v64z m-32 96h64v-64h-64v64z m128-96h64v-64h-64v64z m96 0h96v-64h-96v64z m-128 96h64v-64h-64v64z m96 0h128v-64H736v64zM160 416h128v-64H160v64z m160 0h64v-64h-64v64z m96 0h64v-64h-64v64z m96 0h64v-64h-64v64z m96 0h64v-64h-64v64z m96 0h160v-64H704v64z m-544-96h160v-64H160v64z m192 0h64v-64h-64v64z m96 0h64v-64h-64v64z m96 0h64v-64h-64v64z m96 0h224v-64H640v64z m-480-96h128v-64H160v64z m576 0h128v-64H736v64z m-416 0h384v-64H320v64z"  horiz-adv-x="1024" />

    
    <glyph glyph-name="map" unicode="&#58893;" d="M512-64C266.667 152.506 144 328.506 144 464c0 203.24 164.76 368 368 368s368-164.76 368-368c0-135.494-122.667-311.494-368-528zM288.505 266.974C339.46 193.867 413.983 112.086 512 22.09c98.017 89.997 172.541 171.778 223.495 244.885C789.987 345.16 816 411.216 816 464c0 167.895-136.105 304-304 304S208 631.895 208 464c0-52.784 26.013-118.841 80.505-197.026zM512 264c-110.457 0-200 89.543-200 200s89.543 200 200 200 200-89.543 200-200-89.543-200-200-200z m0 64c75.11 0 136 60.89 136 136s-60.89 136-136 136-136-60.89-136-136 60.89-136 136-136z"  horiz-adv-x="1024" />

    
    <glyph glyph-name="return" unicode="&#58894;" d="M461.394 77.116l-45.255-45.255L64 384l352.14 352.14 45.254-45.256L186.51 416H960v-64H186.51z"  horiz-adv-x="1024" />

    
    <glyph glyph-name="search" unicode="&#58895;" d="M676.93 173.816C614.423 121.496 533.89 90 446 90 247.177 90 86 251.177 86 450S247.177 810 446 810s360-161.177 360-360c0-87.89-31.495-168.423-83.816-230.93L938.146 3.11l-45.255-45.255L676.93 173.816zM446 154c163.476 0 296 132.524 296 296S609.476 746 446 746 150 613.476 150 450s132.524-296 296-296z"  horiz-adv-x="1024" />

    
    <glyph glyph-name="notice-" unicode="&#58896;" d="M210.633 218h602.734C763.107 287.215 736 364.998 736 445V573c0 123.712-100.288 224-224 224S288 696.712 288 573v-128c0-80.002-27.106-157.785-77.367-227zM128 218c62.454 68.544 96 147.024 96 227V573c0 159.058 128.942 288 288 288s288-128.942 288-288v-128c0-79.976 33.546-158.456 96-227v-64H128v64z m384-312c-66.274 0-120 53.726-120 120s53.726 120 120 120 120-53.726 120-120-53.726-120-120-120z m0 64c30.928 0 56 25.072 56 56s-25.072 56-56 56-56-25.072-56-56 25.072-56 56-56z"  horiz-adv-x="1024" />

    
    <glyph glyph-name="color" unicode="&#58897;" d="M287.964 242.145c1.34-76.02 41.362-149.47 112.002-190.254 107.138-61.856 244.134-25.148 305.99 81.99 19.734 34.18 29.436 71.4 30.02 108.25C715.4 237.464 693.988 235 672 235c-59.205 0-114.237 17.865-160 48.498C466.237 252.865 411.205 235 352 235c-22.01 0-43.442 2.469-64.036 7.145z m-63.448 22.536C129.406 311.708 64 409.716 64 523 64 682.058 192.942 811 352 811c59.205 0 114.237-17.865 160-48.498C557.763 793.135 612.795 811 672 811c159.058 0 288-128.942 288-288 0-113.323-65.452-211.36-160.614-258.368 3.634-54.929-8.413-111.497-38.004-162.751-79.53-137.748-255.667-184.944-393.416-105.415-98.12 56.65-150.295 162.319-143.45 268.215z m402.719 173.266c-12.898-41.786-35.05-79.51-64.062-110.78C595.393 309.222 632.503 299 672 299c19.247 0 37.927 2.427 55.75 6.993-14.868 53.383-49.432 101.32-100.515 131.954z m12.16 66.22a292.347 292.347 0 0 0 16.571-8.87c65.501-37.818 110.527-97.48 131.19-164.47C852.365 369.987 896 441.397 896 523c0 123.712-100.288 224-224 224-39.497 0-76.607-10.223-108.827-28.166C610.85 667.446 640 598.627 640 523c0-6.327-0.204-12.607-0.606-18.832zM236.733 330.895c6.246 20.158 14.82 39.94 25.817 58.987 29.613 51.29 72.62 90.026 122.051 114.34-0.4 6.208-0.602 12.47-0.602 18.779 0 75.627 29.15 144.446 76.827 195.834C428.607 736.777 391.497 747 352 747c-123.712 0-224-100.288-224-224 0-81.556 43.585-152.932 108.734-192.106z m59.4-24.872C313.994 301.438 332.713 299 352 299c39.497 0 76.607 10.223 108.827 28.166-29.03 31.289-51.19 69.04-64.084 110.855-31.633-18.931-59.026-45.95-78.766-80.14-9.638-16.694-16.884-34.112-21.842-51.859zM575.97 526.758c-0.98 59.545-25.193 113.439-63.969 153.01-38.79-39.585-63.007-93.503-63.97-153.072 41.579 9.477 85.314 9.79 127.94 0.062z m-8.134-63.897c-37.134 9.583-75.557 9.248-111.66-0.039 10.271-36.913 29.758-69.988 55.825-96.59 26.076 26.611 45.567 59.7 55.835 96.629z"  horiz-adv-x="1024" />

    
    <glyph glyph-name="upload" unicode="&#58898;" d="M176 336v-288h672V336h64v-352H112V336h64z m303.98 325.48L336.627 518.128l-45.254 45.255L511.99 784l220.617-220.617-45.255-45.255L543.98 661.5V136h-64V661.48z"  horiz-adv-x="1024" />

    
    <glyph glyph-name="giftcopy" unicode="&#58899;" d="M282.89 599c-37.814 47.118-34.87 116.148 8.836 159.853 46.863 46.863 122.843 46.863 169.705 0 24.43-24.43 41.286-75.872 50.569-154.33 9.283 78.458 26.14 129.9 50.569 154.33 46.862 46.863 122.842 46.863 169.705 0 43.705-43.705 46.65-112.735 8.836-159.853H912v-184h-64v-441H176V415h-64V599h170.89zM480 535H176v-56h304v56z m64 0v-56h304v56H544z m-64-121H240v-376h240V414z m64 0v-376h240V414H544z m92.752 199.663c15.07 3.767 27.308 7.94 36.599 12.304 7.038 3.305 11.526 6.292 13.668 8.435 21.87 21.87 21.87 57.327 0 79.196-21.869 21.87-57.326 21.87-79.196 0-2.142-2.143-5.13-6.63-8.435-13.668-4.363-9.29-8.536-21.53-12.304-36.6-4.276-17.104-7.895-37.287-10.814-60.482 23.194 2.92 43.377 6.539 60.482 10.815z m-249.504 0c17.105-4.276 37.288-7.896 60.482-10.815-2.919 23.195-6.538 43.378-10.814 60.483-3.768 15.07-7.94 27.308-12.304 36.599-3.306 7.037-6.293 11.525-8.435 13.668-21.87 21.87-57.327 21.87-79.196 0-21.87-21.87-21.87-57.327 0-79.196 2.142-2.143 6.63-5.13 13.668-8.435 9.29-4.364 21.53-8.537 36.6-12.304z"  horiz-adv-x="1024" />

    
    <glyph glyph-name="like" unicode="&#58900;" d="M873.965 346.5l0.035-0.035L511.535-16l-0.035 0.035-0.035-0.035L149 346.465l0.035 0.035c-100.058 100.095-100.047 262.35 0.034 362.43C249.15 809.013 411.405 809.024 511.5 708.966c100.095 100.058 262.35 100.047 362.43-0.034 100.082-100.08 100.093-262.336 0.035-362.431z m-45.263 45.246c75.074 75.102 75.063 196.841-0.026 271.93s-196.828 75.1-271.93 0.026l-45.246-45.23-45.246 45.23c-75.102 75.074-196.841 75.063-271.93-0.026s-75.1-196.828-0.026-271.93L511.465 74.51l0.035 0.034 0.035-0.034 317.167 317.236z"  horiz-adv-x="1024" />

    
    <glyph glyph-name="share" unicode="&#58901;" d="M630.376 170.507l-159.45 92.058C434.379 214.805 376.787 184 312 184c-110.457 0-200 89.543-200 200s89.543 200 200 200c64.786 0 122.378-30.804 158.927-78.565l159.45 92.058C626.231 610.93 624 625.203 624 640c0 79.529 64.471 144 144 144s144-64.471 144-144-64.471-144-144-144c-41.717 0-79.291 17.74-105.59 46.087l-161.213-93.076C508.199 428.628 512 406.758 512 384c0-22.758-3.801-44.628-10.803-65.01l161.213-93.077C688.709 254.26 726.283 272 768 272c79.529 0 144-64.471 144-144s-64.471-144-144-144-144 64.471-144 144c0 14.796 2.232 29.071 6.376 42.507zM312 248c75.11 0 136 60.89 136 136s-60.89 136-136 136-136-60.89-136-136 60.89-136 136-136z m456 312c44.183 0 80 35.817 80 80s-35.817 80-80 80-80-35.817-80-80 35.817-80 80-80z m0-512c44.183 0 80 35.817 80 80s-35.817 80-80 80-80-35.817-80-80 35.817-80 80-80z"  horiz-adv-x="1024" />

    
    <glyph glyph-name="setting" unicode="&#58902;" d="M183.775 711.698l131.336-49.934 55.426 32L392.917 832.2h238.48l22.38-138.435 55.425-32L840.281 711.6l119.24-206.53-108.7-88.599v-64l108.913-88.773-119.196-206.453-131.336 49.934-55.426-32-22.468-138.98H393.005l-22.468 138.98-55.426 32-131.593-50.032L64.366 263.524 173.49 352.47v64L64.58 505.245l119.196 206.453z m28.184-79.185L147.247 520.43l90.244-73.558v-124.801l-90.457-73.732L211.7 136.332l109.082 41.473 108.082-62.401 18.624-115.205h129.335l18.625 115.205 108.081 62.4 108.825-41.374 64.711 112.083-90.244 73.558V446.872l90.03 73.384-64.755 112.16-108.567-41.278-108.081 62.401-18.537 114.66h-129.51l-18.537-114.66-108.082-62.4-108.824 41.374zM512 184c-110.457 0-200 89.543-200 200s89.543 200 200 200 200-89.543 200-200-89.543-200-200-200z m0 64c75.11 0 136 60.89 136 136s-60.89 136-136 136-136-60.89-136-136 60.89-136 136-136z"  horiz-adv-x="1024" />

    


  </font>
</defs>
</svg>
